# xmcd CD database file
#
# Track frame offsets:
#	150
#	17521
#	34186
#	47123
#	64112
#	79668
#	100120
#	117220
#	131070
#	143613
#	161793
#	174377
#
# Disc length: 2553 seconds
#
# Revision: 0
# Processed by: cddbd v1.5.2PL0 Copyright (c) Steve Scherf et al.
# Submitted via: CDex 1.51
#
DISCID=9809f70c
DTITLE=Eric Bibb - Spirit I Am - CD1 - Get Onboard
DYEAR=2008
DGENRE=Blues
TTITLE0=Stayed On Freedom
TTITLE1=Spirit I Am
TTITLE2=The Promised Land
TTITLE3=New Beale Street Blues
TTITLE4=Get Onboard
TTITLE5=If Our Hearts Ain't In It
TTITLE6=Pockets
TTITLE7=River Blues
TTITLE8=Deep In My Soul
TTITLE9=Conversations
TTITLE10=God's Kingdom
TTITLE11=Step By Step
EXTD=YEAR: 2008
EXTT0=
EXTT1=
EXTT2=
EXTT3=
EXTT4=
EXTT5=
EXTT6=
EXTT7=
EXTT8=
EXTT9=
EXTT10=
EXTT11=
PLAYORDER=
